<?xml version="1.0" encoding="UTF-8" ?>
<!DOCTYPE svg PUBLIC "-//W3C//DTD SVG 1.1//EN" "http://www.w3.org/Graphics/SVG/1.1/DTD/svg11.dtd">
<svg width="50pt" height="40pt" viewBox="0 0 50 40" version="1.1" xmlns="http://www.w3.org/2000/svg">
<g id="#ff8207ff">
<path fill="#ff8207" opacity="1.00" d=" M 0.18 0.00 L 49.91 0.00 L 49.99 0.01 L 50.00 0.17 L 50.00 30.07 C 49.16 31.53 47.75 32.51 46.01 32.31 C 39.53 32.43 33.04 32.28 26.56 32.34 C 26.58 33.87 26.59 35.41 26.60 36.94 C 29.64 37.33 33.47 35.87 35.98 38.00 C 35.83 38.50 35.52 39.50 35.36 40.00 L 14.58 40.00 C 13.79 38.70 13.95 36.91 15.85 37.03 C 18.36 36.78 20.88 36.94 23.40 36.94 C 23.40 35.41 23.42 33.88 23.46 32.35 C 16.95 32.26 10.44 32.44 3.94 32.30 C 2.28 32.53 1.04 31.47 0.00 30.32 L 0.00 0.09 L 0.01 0.01 L 0.18 0.00 M 3.12 3.07 C 3.12 11.78 3.12 20.49 3.12 29.20 C 17.71 29.20 32.29 29.20 46.88 29.20 C 46.88 20.49 46.88 11.78 46.88 3.07 C 32.29 3.07 17.71 3.07 3.12 3.07 Z" />
</g>
</svg>
