<?xml version="1.0" encoding="UTF-8" ?>
<!DOCTYPE svg PUBLIC "-//W3C//DTD SVG 1.1//EN" "http://www.w3.org/Graphics/SVG/1.1/DTD/svg11.dtd">
<svg width="40pt" height="40pt" viewBox="0 0 40 40" version="1.1" xmlns="http://www.w3.org/2000/svg">
<g id="#fb8007fb">
<path fill="#fb8007" opacity="1.00" d=" M 21.55 0.00 L 23.14 0.00 C 25.11 1.34 26.93 2.92 29.10 3.93 C 31.79 3.81 34.29 2.61 36.95 2.24 C 37.15 2.44 37.55 2.85 37.75 3.06 C 37.35 5.73 36.53 8.32 35.89 10.94 C 37.25 12.92 38.63 14.88 40.00 16.85 L 40.00 18.48 C 37.12 18.73 34.24 18.96 31.36 19.25 C 29.94 21.24 28.52 23.27 26.78 25.01 C 23.97 24.83 24.18 20.85 22.91 18.90 C 15.69 25.79 8.87 33.08 1.67 40.00 L 0.00 40.00 L 0.00 38.29 C 6.86 31.13 14.03 24.28 20.93 17.16 C 18.87 16.29 16.80 15.45 14.72 14.60 C 16.04 11.99 18.60 10.41 20.85 8.70 C 21.13 5.80 21.35 2.90 21.55 0.00 M 23.89 3.85 C 23.72 5.77 23.60 7.70 23.50 9.63 C 21.97 10.95 20.45 12.28 18.96 13.64 C 20.78 14.29 22.61 14.95 24.43 15.61 C 25.13 17.41 25.82 19.23 26.50 21.05 C 27.88 19.60 29.22 18.12 30.52 16.60 C 32.42 16.48 34.32 16.35 36.21 16.17 C 35.29 14.41 33.81 12.86 33.35 10.90 C 33.56 9.09 34.09 7.34 34.46 5.56 C 32.67 5.96 30.90 6.51 29.08 6.75 C 27.19 6.11 25.61 4.83 23.89 3.85 Z" />
</g>
</svg>
