<?xml version="1.0" encoding="UTF-8" ?>
<!DOCTYPE svg PUBLIC "-//W3C//DTD SVG 1.1//EN" "http://www.w3.org/Graphics/SVG/1.1/DTD/svg11.dtd">
<svg width="40pt" height="40pt" viewBox="0 0 40 40" version="1.1" xmlns="http://www.w3.org/2000/svg">
<g id="#f67d07f6">
<path fill="#f67d07" opacity="0.96" d=" M 34.64 0.00 L 40.00 0.00 L 40.00 5.98 C 39.56 11.18 38.72 16.99 34.58 20.64 C 30.98 23.63 26.58 25.39 22.55 27.70 C 22.56 30.03 22.53 32.35 22.55 34.68 C 20.73 36.46 19.02 38.35 17.08 40.00 L 15.79 40.00 C 14.90 34.67 12.59 29.28 7.74 26.45 C 5.22 25.59 2.59 25.09 0.00 24.46 L 0.00 23.16 C 1.61 21.08 3.52 19.27 5.27 17.31 C 7.77 17.31 10.26 17.32 12.76 17.31 C 15.12 12.97 16.83 8.04 20.62 4.68 C 24.49 1.35 29.75 0.59 34.64 0.00 M 23.00 6.00 C 18.56 9.32 17.35 15.07 14.30 19.44 C 11.79 20.26 9.01 19.69 6.40 19.83 C 5.48 20.81 4.56 21.78 3.62 22.74 C 5.60 23.26 7.66 23.53 9.56 24.32 C 13.08 27.65 17.06 31.23 17.46 36.40 C 18.29 35.47 19.14 34.54 20.01 33.63 C 20.00 31.19 19.83 28.71 20.29 26.29 C 24.73 22.92 30.68 21.65 34.30 17.22 C 37.34 12.94 37.27 7.42 37.57 2.41 C 32.59 2.76 27.24 3.09 23.00 6.00 Z" />
<path fill="#f67d07" opacity="0.96" d=" M 26.47 7.51 C 30.05 6.57 33.63 10.48 32.29 13.97 C 31.32 17.40 26.43 18.61 24.01 15.97 C 21.11 13.43 22.71 8.14 26.47 7.51 M 26.29 10.24 C 23.11 11.90 26.64 16.72 29.12 14.24 C 31.52 12.55 28.73 8.70 26.29 10.24 Z" />
<path fill="#f67d07" opacity="0.96" d=" M 0.00 37.02 C -0.28 32.92 2.45 29.95 5.97 28.38 C 6.34 28.87 7.09 29.85 7.46 30.34 C 4.49 31.74 2.24 34.16 2.36 37.63 C 5.77 37.50 8.20 35.44 9.55 32.42 C 10.02 32.85 10.97 33.72 11.45 34.15 C 10.32 35.76 9.48 37.75 7.74 38.82 C 5.29 39.81 2.59 39.72 0.00 39.98 L 0.00 37.02 Z" />
</g>
</svg>
