<?xml version="1.0" encoding="UTF-8" ?>
<!DOCTYPE svg PUBLIC "-//W3C//DTD SVG 1.1//EN" "http://www.w3.org/Graphics/SVG/1.1/DTD/svg11.dtd">
<svg width="33pt" height="40pt" viewBox="0 0 33 40" version="1.1" xmlns="http://www.w3.org/2000/svg">
<g id="#fc8107fc">
<path fill="#fc8107" opacity="1.00" d=" M 21.42 0.00 L 23.33 0.00 C 28.61 2.94 32.25 8.35 33.00 14.35 L 33.00 17.59 C 32.56 22.76 30.27 27.90 26.06 31.06 C 23.34 33.33 19.85 34.24 16.49 35.06 C 16.48 35.65 16.47 36.81 16.47 37.39 C 18.51 37.79 22.18 36.72 21.60 40.00 L 9.60 40.00 C 9.36 39.44 8.89 38.32 8.65 37.76 C 10.40 37.71 12.16 37.62 13.91 37.41 C 13.94 36.87 13.99 35.78 14.02 35.24 C 11.55 34.45 5.10 35.20 6.44 31.12 C 12.01 33.02 18.57 33.22 23.57 29.72 C 30.74 25.06 32.61 14.32 27.74 7.36 C 26.08 4.49 22.36 3.35 21.42 0.00 Z" />
<path fill="#fc8107" opacity="1.00" d=" M 7.87 3.85 C 14.78 0.30 24.16 3.89 26.86 11.18 C 30.13 18.56 25.26 27.91 17.40 29.59 C 9.47 31.91 0.69 25.79 0.00 17.58 L 0.00 15.30 C 0.45 10.45 3.42 5.91 7.87 3.85 M 10.46 5.52 C 4.95 7.18 1.30 13.43 2.88 19.03 C 4.25 25.02 11.08 28.91 16.94 27.12 C 22.54 25.75 26.43 19.65 25.07 14.00 C 23.92 7.61 16.59 3.36 10.46 5.52 Z" />
</g>
</svg>
