<?xml version="1.0" encoding="UTF-8" ?>
<!DOCTYPE svg PUBLIC "-//W3C//DTD SVG 1.1//EN" "http://www.w3.org/Graphics/SVG/1.1/DTD/svg11.dtd">
<svg width="40pt" height="41pt" viewBox="0 0 40 41" version="1.1" xmlns="http://www.w3.org/2000/svg">
<g id="#f27b07f2">
<path fill="#f27b07" opacity="0.95" d=" M 17.56 0.00 L 22.30 0.00 C 23.67 1.61 24.20 3.68 24.76 5.66 C 25.27 5.89 26.28 6.34 26.79 6.56 C 28.99 5.30 32.15 2.89 34.20 5.76 C 37.17 7.79 34.69 11.04 33.50 13.31 C 33.71 13.82 34.14 14.84 34.36 15.36 C 36.32 15.93 38.33 16.50 40.00 17.73 L 40.00 22.61 C 38.23 23.48 36.38 24.18 34.49 24.77 C 34.23 25.26 33.71 26.24 33.45 26.73 C 34.59 28.98 37.21 32.19 34.28 34.23 C 32.24 37.19 29.00 34.81 26.77 33.49 C 26.25 33.74 25.22 34.24 24.70 34.49 C 24.10 36.97 23.51 40.85 19.98 40.14 C 16.50 40.83 16.14 36.74 15.34 34.42 C 14.78 34.18 13.67 33.70 13.11 33.46 C 11.51 34.30 9.99 35.43 8.18 35.81 C 6.35 35.33 4.60 33.78 4.11 31.93 C 4.73 29.57 6.07 27.42 6.31 24.95 C 4.15 24.34 1.99 23.70 0.00 22.63 L 0.00 17.76 C 1.66 16.48 3.69 15.91 5.68 15.34 C 5.87 14.86 6.24 13.90 6.43 13.43 C 5.15 11.11 2.61 7.73 5.73 5.66 C 7.85 2.89 10.92 5.40 13.11 6.62 C 13.66 6.37 14.75 5.88 15.30 5.63 C 15.94 3.71 16.65 1.81 17.56 0.00 M 17.56 7.60 C 15.97 8.24 14.40 8.92 12.82 9.60 C 11.26 8.62 9.70 7.64 8.14 6.66 C 5.49 8.71 8.41 11.14 9.38 13.19 C 8.78 14.69 8.18 16.18 7.59 17.68 C 5.92 18.05 4.22 18.37 2.60 18.93 C 1.41 22.23 5.62 21.76 7.63 22.59 C 8.20 24.01 8.79 25.43 9.39 26.85 C 8.51 28.92 5.29 31.48 8.20 33.35 C 9.75 32.40 11.29 31.44 12.84 30.48 C 14.42 31.16 16.01 31.83 17.61 32.46 C 18.00 34.11 18.37 35.76 18.77 37.41 C 19.62 37.44 20.48 37.48 21.34 37.53 C 21.72 35.84 22.08 34.14 22.45 32.44 C 23.99 31.82 25.53 31.18 27.07 30.54 C 29.02 31.51 31.36 34.41 33.31 31.81 C 32.42 30.18 31.43 28.61 30.53 26.99 C 31.16 25.51 31.78 24.03 32.38 22.54 C 34.13 22.12 35.88 21.70 37.62 21.27 C 38.20 18.07 34.54 18.25 32.41 17.66 C 31.81 16.12 31.18 14.59 30.54 13.07 C 31.45 11.45 32.42 9.87 33.33 8.25 C 31.33 5.74 29.01 8.54 27.07 9.54 C 25.53 8.88 23.99 8.23 22.44 7.59 C 22.07 5.91 21.75 4.20 21.19 2.56 C 17.90 1.50 18.39 5.61 17.56 7.60 Z" />
<path fill="#f27b07" opacity="0.95" d=" M 16.31 13.47 C 21.02 10.54 27.79 14.46 27.56 20.01 C 27.82 25.54 21.11 29.50 16.38 26.64 C 11.29 24.15 11.25 16.01 16.31 13.47 M 17.50 15.73 C 14.51 17.34 14.18 21.96 16.94 23.95 C 19.62 26.29 24.21 24.56 24.87 21.12 C 25.99 17.13 20.99 13.38 17.50 15.73 Z" />
</g>
</svg>
