<?xml version="1.0" encoding="UTF-8" ?>
<!DOCTYPE svg PUBLIC "-//W3C//DTD SVG 1.1//EN" "http://www.w3.org/Graphics/SVG/1.1/DTD/svg11.dtd">
<svg width="40pt" height="41pt" viewBox="0 0 40 41" version="1.1" xmlns="http://www.w3.org/2000/svg">
<g id="#fa7f07fa">
<path fill="#fa7f07" opacity="0.98" d=" M 19.85 0.00 L 20.54 0.00 C 27.03 3.31 33.57 6.54 40.00 9.99 L 40.00 11.32 C 33.42 15.12 26.68 18.66 19.96 22.22 C 13.31 18.51 6.48 15.11 0.00 11.11 L 0.00 10.85 C 0.67 9.44 2.23 8.94 3.48 8.23 C 8.96 5.53 14.38 2.72 19.85 0.00 M 4.21 10.70 C 9.45 13.65 14.74 16.49 20.01 19.37 C 25.34 16.48 30.72 13.67 36.00 10.67 C 30.70 8.05 25.47 5.30 20.19 2.66 C 14.86 5.33 9.55 8.04 4.21 10.70 Z" />
<path fill="#fa7f07" opacity="0.98" d=" M 0.00 19.28 C 1.50 18.32 3.10 17.54 4.71 16.78 C 5.32 17.15 6.55 17.87 7.16 18.23 C 6.11 18.81 5.06 19.39 4.01 19.97 C 9.28 22.83 14.53 25.73 19.80 28.59 C 25.13 25.71 30.46 22.84 35.78 19.95 C 34.78 19.40 33.78 18.85 32.78 18.31 C 33.42 17.95 34.68 17.23 35.31 16.87 C 36.96 17.62 38.58 18.46 40.00 19.60 L 40.00 20.38 C 33.40 24.27 26.58 27.74 19.86 31.42 C 13.17 27.93 6.56 24.29 0.00 20.56 L 0.00 19.28 Z" />
<path fill="#fa7f07" opacity="0.98" d=" M 35.48 25.82 C 37.06 26.50 38.62 27.28 40.00 28.32 L 40.00 28.42 C 39.41 30.05 37.63 30.49 36.33 31.33 C 30.83 34.25 25.37 37.25 19.88 40.20 C 13.18 36.70 6.54 33.09 0.00 29.30 L 0.00 27.95 C 1.41 27.26 2.82 26.56 4.22 25.85 C 4.93 26.21 6.36 26.93 7.07 27.28 C 6.30 27.64 4.76 28.35 3.99 28.70 C 9.24 31.64 14.53 34.50 19.82 37.37 C 25.15 34.48 30.48 31.60 35.80 28.71 C 35.08 28.36 33.65 27.66 32.93 27.31 C 33.78 26.81 34.63 26.32 35.48 25.82 Z" />
</g>
</svg>
