<?xml version="1.0" encoding="UTF-8" ?>
<!DOCTYPE svg PUBLIC "-//W3C//DTD SVG 1.1//EN" "http://www.w3.org/Graphics/SVG/1.1/DTD/svg11.dtd">
<svg width="40pt" height="41pt" viewBox="0 0 40 41" version="1.1" xmlns="http://www.w3.org/2000/svg">
<g id="#f77e07f7">
<path fill="#f77e07" opacity="0.97" d=" M 26.79 0.00 L 32.03 0.00 C 31.29 3.54 28.16 5.75 26.04 8.46 C 27.92 10.39 29.80 12.33 31.66 14.28 C 34.32 12.09 36.56 9.14 40.00 8.14 L 40.00 12.66 C 39.66 16.57 38.83 21.01 35.25 23.28 C 32.22 25.70 28.17 25.16 24.74 24.03 C 20.25 28.43 15.88 32.96 11.45 37.42 C 10.02 38.85 8.26 40.48 6.05 40.03 C 3.20 39.52 1.45 36.86 0.00 34.60 L 0.00 32.08 C 4.25 25.61 10.62 20.86 15.68 15.04 C 14.80 11.40 14.65 7.21 17.17 4.16 C 19.39 1.13 23.35 0.56 26.79 0.00 M 18.86 5.93 C 16.80 8.84 17.46 12.60 18.71 15.68 C 13.73 20.71 8.77 25.77 3.84 30.83 C -0.12 33.55 6.47 40.22 9.14 36.11 C 14.22 31.02 19.27 25.90 24.32 20.77 C 27.09 22.45 30.74 23.37 33.63 21.44 C 36.83 19.57 37.14 15.58 37.58 12.29 C 35.70 13.92 33.95 15.69 31.95 17.16 C 28.33 15.22 25.78 11.43 22.93 8.43 C 24.64 6.41 26.39 4.42 28.05 2.35 C 24.86 2.92 20.87 2.91 18.86 5.93 Z" />
</g>
</svg>
