<?xml version="1.0" encoding="UTF-8" ?>
<!DOCTYPE svg PUBLIC "-//W3C//DTD SVG 1.1//EN" "http://www.w3.org/Graphics/SVG/1.1/DTD/svg11.dtd">
<svg width="40pt" height="41pt" viewBox="0 0 40 41" version="1.1" xmlns="http://www.w3.org/2000/svg">
<g id="#fe8207fe">
<path fill="#fe8207" opacity="1.00" d=" M 33.34 0.00 L 35.14 0.00 C 37.46 0.67 39.17 2.49 40.00 4.71 L 40.00 6.38 C 39.45 7.89 38.54 9.24 37.38 10.35 C 32.86 14.85 28.29 19.30 23.80 23.82 C 20.51 27.94 14.95 28.84 10.08 29.83 C 10.80 26.20 11.76 22.58 13.16 19.15 C 17.03 14.73 21.45 10.81 25.52 6.56 C 28.01 4.25 30.06 1.26 33.34 0.00 M 32.38 3.33 C 27.07 8.37 22.04 13.71 16.79 18.81 C 14.44 20.68 14.40 23.94 13.41 26.56 C 15.77 25.60 18.68 25.48 20.53 23.55 C 25.81 18.19 31.27 12.99 36.53 7.60 C 39.48 5.28 34.79 0.65 32.38 3.33 Z" />
<path fill="#fe8207" opacity="1.00" d=" M -0.00 5.61 C 0.62 4.38 1.60 3.78 2.95 3.83 C 9.49 3.73 16.04 3.83 22.58 3.81 C 21.73 4.63 20.87 5.45 20.02 6.27 C 14.17 6.26 8.32 6.26 2.47 6.27 C 2.48 16.69 2.47 27.11 2.48 37.53 C 12.01 37.60 21.55 37.39 31.08 37.64 C 31.28 32.28 31.10 26.91 31.21 21.55 C 32.04 20.79 32.88 20.02 33.71 19.26 C 33.66 25.15 33.78 31.04 33.69 36.94 C 33.89 38.46 32.79 40.22 31.09 40.01 C 22.04 40.16 12.99 40.01 3.94 40.08 C 2.38 40.22 0.87 39.79 0.00 38.39 L 0.00 5.61 Z" />
</g>
</svg>
