<?xml version="1.0" encoding="UTF-8" ?>
<!DOCTYPE svg PUBLIC "-//W3C//DTD SVG 1.1//EN" "http://www.w3.org/Graphics/SVG/1.1/DTD/svg11.dtd">
<svg width="49pt" height="60pt" viewBox="0 0 49 60" version="1.1" xmlns="http://www.w3.org/2000/svg">
<g id="#ff8207ff">
<path fill="#ff8207" opacity="1.00" d=" M 8.73 0.00 L 39.43 0.00 C 44.20 0.24 48.24 3.99 49.00 8.67 L 49.00 51.09 C 48.43 55.62 44.77 59.24 40.31 60.00 L 8.93 60.00 C 4.38 59.41 0.68 55.74 0.00 51.21 L 0.00 8.90 C 0.58 4.36 4.27 0.76 8.73 0.00 M 23.19 22.15 C 23.17 24.48 23.17 26.82 23.15 29.16 C 20.89 29.16 18.64 29.17 16.38 29.18 C 16.37 29.63 16.36 30.53 16.35 30.98 C 18.62 31.01 20.89 31.00 23.16 31.01 C 23.17 33.47 23.16 35.93 23.18 38.38 C 23.73 38.38 24.83 38.38 25.37 38.37 C 25.39 35.92 25.38 33.46 25.38 31.01 C 27.59 31.01 29.80 31.00 32.00 31.00 C 32.00 30.54 32.00 29.63 32.00 29.17 C 29.80 29.16 27.59 29.17 25.39 29.17 C 25.38 26.84 25.39 24.51 25.37 22.18 C 24.83 22.17 23.74 22.15 23.19 22.15 Z" />
</g>
<g id="#fffdfbff">
<path fill="#fffdfb" opacity="1.00" d=" M 23.19 22.15 C 23.74 22.15 24.83 22.17 25.37 22.18 C 25.39 24.51 25.38 26.84 25.39 29.17 C 27.59 29.17 29.80 29.16 32.00 29.17 C 32.00 29.63 32.00 30.54 32.00 31.00 C 29.80 31.00 27.59 31.01 25.38 31.01 C 25.38 33.46 25.39 35.92 25.37 38.37 C 24.83 38.38 23.73 38.38 23.18 38.38 C 23.16 35.93 23.17 33.47 23.16 31.01 C 20.89 31.00 18.62 31.01 16.35 30.98 C 16.36 30.53 16.37 29.63 16.38 29.18 C 18.64 29.17 20.89 29.16 23.15 29.16 C 23.17 26.82 23.17 24.48 23.19 22.15 Z" />
</g>
</svg>
