<?xml version="1.0" encoding="UTF-8" ?>
<!DOCTYPE svg PUBLIC "-//W3C//DTD SVG 1.1//EN" "http://www.w3.org/Graphics/SVG/1.1/DTD/svg11.dtd">
<svg width="12pt" height="26pt" viewBox="0 0 12 26" version="1.1" xmlns="http://www.w3.org/2000/svg">
<g id="#ffffffff">
<path fill="#ffffff" opacity="1.00" d=" M 4.82 1.86 C 6.77 0.06 9.59 0.67 12.00 0.47 L 12.00 4.47 C 10.64 4.81 8.80 4.19 7.73 5.29 C 7.49 6.68 7.45 8.10 7.32 9.51 C 8.88 9.52 10.44 9.52 12.00 9.51 L 12.00 13.69 C 10.50 13.73 8.99 13.77 7.49 13.79 C 7.52 17.71 7.50 21.63 7.54 25.55 C 6.00 25.53 4.46 25.51 2.92 25.47 C 3.06 21.58 3.17 17.69 3.09 13.80 C 2.32 13.79 0.77 13.75 0.00 13.73 L 0.00 9.54 C 0.76 9.52 2.27 9.49 3.03 9.47 C 3.25 6.92 2.47 3.66 4.82 1.86 Z" />
</g>
</svg>
