<?xml version="1.0" encoding="UTF-8" ?>
<!DOCTYPE svg PUBLIC "-//W3C//DTD SVG 1.1//EN" "http://www.w3.org/Graphics/SVG/1.1/DTD/svg11.dtd">
<svg width="31pt" height="6pt" viewBox="0 0 31 6" version="1.1" xmlns="http://www.w3.org/2000/svg">
<g id="#e37306e3">
<path fill="#e37306" opacity="0.89" d=" M 0.00 0.00 L 1.33 0.00 C 2.70 1.38 4.01 2.81 5.34 4.23 C 6.80 2.85 8.24 1.44 9.65 0.00 L 11.19 0.00 C 12.63 1.40 14.05 2.86 15.76 3.94 C 17.19 2.75 18.42 1.36 19.69 0.00 L 21.36 0.00 C 22.71 1.37 24.00 2.80 25.31 4.21 C 26.79 2.81 28.23 1.38 29.72 0.00 L 31.00 0.00 L 31.00 1.35 C 29.54 2.96 28.02 4.51 26.45 6.00 L 24.71 6.00 C 23.27 4.55 21.79 3.13 20.29 1.74 C 19.00 3.15 17.72 4.57 16.47 6.00 L 14.72 6.00 C 13.21 4.61 11.75 3.17 10.27 1.75 C 8.99 3.16 7.72 4.57 6.46 6.00 L 4.60 6.00 C 3.01 4.52 1.48 2.99 0.00 1.39 L 0.00 0.00 Z" />
</g>
</svg>
