<?xml version="1.0" encoding="UTF-8" ?>
<!DOCTYPE svg PUBLIC "-//W3C//DTD SVG 1.1//EN" "http://www.w3.org/Graphics/SVG/1.1/DTD/svg11.dtd">
<svg width="826pt" height="16pt" viewBox="0 0 826 16" version="1.1" xmlns="http://www.w3.org/2000/svg">
<g id="#28363dff">
<path fill="#28363d" opacity="1.00" d=" M 412.85 0.00 L 412.99 0.00 C 415.69 2.63 418.33 5.33 420.99 8.00 C 418.41 10.69 415.63 13.18 413.19 16.00 L 413.01 16.00 C 410.31 13.37 407.67 10.67 405.00 8.00 C 407.61 5.32 410.35 2.78 412.85 0.00 Z" />
<path fill="#28363d" opacity="1.00" d=" M 0.00 7.00 C 133.33 7.01 266.67 6.99 400.00 7.01 C 400.00 7.50 400.00 8.49 400.00 8.99 C 266.67 9.01 133.33 8.99 0.00 9.00 L 0.00 7.00 Z" />
<path fill="#28363d" opacity="1.00" d=" M 426.00 7.01 C 559.33 6.99 692.67 7.01 826.00 7.00 L 826.00 9.00 C 692.67 8.99 559.33 9.01 426.00 8.99 C 426.00 8.50 426.00 7.51 426.00 7.01 Z" />
</g>
</svg>
