<?xml version="1.0" encoding="utf-8"?>
<svg xmlns="http://www.w3.org/2000/svg" xmlns:xlink="http://www.w3.org/1999/xlink">
    <symbol id='inst' viewBox="0 0 36.663 36.664">
        <path  d="M32.305,0H4.357C1.95,0,0,1.946,0,4.349v27.967c0,2.4,1.95,4.348,4.357,4.348h27.947
	    c2.407,0,4.358-1.947,4.358-4.348V4.349C36.663,1.946,34.712,0,32.305,0 M26.352,5.729c0-0.632,0.513-1.146,1.146-1.146h3.438
	    c0.632,0,1.145,0.514,1.145,1.146v3.438c0,0.633-0.513,1.146-1.145,1.146h-3.438c-0.633,0-1.146-0.513-1.146-1.146V5.729z
	     M18.374,11.341c3.894,0,7.051,3.149,7.051,7.033c0,3.885-3.157,7.034-7.051,7.034s-7.051-3.148-7.051-7.034
	    C11.323,14.49,14.48,11.341,18.374,11.341 M33.226,32.08c0,0.633-0.513,1.146-1.146,1.146H4.583c-0.633,0-1.146-0.514-1.146-1.146
	    V14.895H8.02c-0.597,0.858-0.798,2.462-0.798,3.479c0,6.135,5.003,11.127,11.152,11.127s11.153-4.992,11.153-11.127
	    c0-1.018-0.145-2.596-0.885-3.479h4.583V32.08z"/>
    </symbol>
    <symbol id='tw' viewBox="0 0 26 22">
        <path d=" M 12.40 7.42 C 12.00 3.29 16.59 -1.44 20.50 1.66 C 22.05 3.95 28.70 -1.54 23.05 3.77 L 25.62 3.54 C 24.96 4.17 23.63 5.44 22.96 6.07 C 23.17 12.54 18.85 18.93 12.52 20.63 C 8.46 22.35 4.08 20.85 0.40 18.93 C 3.09 18.89 5.75 18.42 8.11 17.07 C 6.21 16.32 4.38 15.35 3.08 13.73 C 3.67 13.58 4.84 13.28 5.42 13.14 C 3.30 12.30 1.89 10.55 1.05 8.48 C 1.73 8.47 3.10 8.47 3.78 8.46 C 1.52 6.95 1.21 4.21 1.80 1.73 C 4.74 4.61 8.35 6.63 12.40 7.42 Z" />
    </symbol>
    <symbol id='fb' viewBox="0 0 12 26">
        <path d=" M 4.82 1.86 C 6.77 0.06 9.59 0.67 12.00 0.47 L 12.00 4.47 C 10.64 4.81 8.80 4.19 7.73 5.29 C 7.49 6.68 7.45 8.10 7.32 9.51 C 8.88 9.52 10.44 9.52 12.00 9.51 L 12.00 13.69 C 10.50 13.73 8.99 13.77 7.49 13.79 C 7.52 17.71 7.50 21.63 7.54 25.55 C 6.00 25.53 4.46 25.51 2.92 25.47 C 3.06 21.58 3.17 17.69 3.09 13.80 C 2.32 13.79 0.77 13.75 0.00 13.73 L 0.00 9.54 C 0.76 9.52 2.27 9.49 3.03 9.47 C 3.25 6.92 2.47 3.66 4.82 1.86 Z" />
    </symbol>
</svg>
