<?xml version="1.0" encoding="utf-8"?>
<svg xmlns="http://www.w3.org/2000/svg" xmlns:xlink="http://www.w3.org/1999/xlink">
    <symbol id='left' viewBox="0 0 46 80">
         <path  d=" M 39.42 0.00 L 40.88 0.00 C 45.16 0.39 47.51 6.22 44.14 9.18 C 33.79 19.45 23.62 29.91 13.14 
         40.03 C 23.60 50.19 33.77 60.64 44.14 70.90 C 47.21 73.65 45.55 79.03 41.68 80.00 L 38.43 80.00 C 27.00 69.30 16.21 
         57.92 5.05 46.93 C 3.41 45.00 0.83 43.59 0.39 40.89 C -0.11 38.88 1.21 36.97 2.59 35.64 C 13.73 24.44 24.90 13.29 36.08 
         2.13 C 36.97 1.11 38.22 0.57 39.42 0.00 Z"/>
    </symbol>

    <symbol id='right' viewBox="0 0 46 80">
         <path  d=" M 5.19 0.00 L 6.82 0.00 C 8.54 0.93 10.14 2.08 11.50 3.49 C 22.22 14.45 33.20 25.15 43.94 36.06 C 46.27 38.10 46.32 41.94 43.99 44.00 C 34.90 53.24 25.66 62.33 16.52 71.52 C 13.46 74.40 10.87 77.83 7.20 80.00 L 4.08 80.00 C 2.60 78.93 0.88 77.81 0.47 75.88 C -0.39 73.29 1.85 71.15 3.45 69.43 C 13.33 59.69 23.05 49.79 32.93 40.06 C 22.56 29.73 12.14 19.45 1.90 8.99 C -1.49 5.96 1.10 0.61 5.19 0.00 Z" />
    </symbol>

    <symbol id='down' viewBox="-1 0 56 56">
        <g>
            <path fill="#182024" opacity="0.60" d=" M 24.71 0.00 L 29.49 0.00 C 42.24 1.20 52.97 12.06 54.00 24.83 L 54.00 29.01 C 53.09 41.81 42.38 52.67 29.66 54.00 L 24.91 54.00 C 12.00 53.04 1.03 42.08 0.00 29.20 L 0.00 24.96 C 0.93 12.08 11.84 1.08 24.71 0.00 M 18.90 24.58 C 21.58 27.28 24.27 29.99 27.00 32.65 C 29.73 29.99 32.43 27.29 35.09 24.56 C 34.55 24.03 33.47 22.98 32.93 22.45 C 30.93 24.39 29.00 26.39 27.00 28.31 C 24.99 26.39 23.06 24.39 21.07 22.45 C 20.35 23.16 19.62 23.87 18.90 24.58 Z" />
            <path fill="#f5f5f5" opacity="1.00" d=" M 18.90 24.58 C 19.62 23.87 20.35 23.16 21.07 22.45 C 23.06 24.39 24.99 26.39 27.00 28.31 C 29.00 26.39 30.93 24.39 32.93 22.45 C 33.47 22.98 34.55 24.03 35.09 24.56 C 32.43 27.29 29.73 29.99 27.00 32.65 C 24.27 29.99 21.58 27.28 18.90 24.58 Z" />
        </g>
    </symbol>

    <symbol id='up' viewBox="0 0 60 60">
        <g>
            <path fill="#ff8207" opacity="1.00" d=" M 8.76 0.00 L 50.47 0.00 C 55.23 0.26 59.27 4.03 60.00 8.72 L 60.00 51.07 C 59.44 55.62 55.76 59.27 51.27 60.00 L 8.97 60.00 C 4.39 59.44 0.65 55.73 0.00 51.18 L 0.00 8.93 C 0.56 4.37 4.27 0.74 8.76 0.00 M 7.38 3.51 C 4.45 4.66 2.73 7.83 2.99 10.92 C 3.03 23.97 2.95 37.02 3.03 50.07 C 2.96 53.71 6.20 57.02 9.85 56.96 C 23.28 57.02 36.71 57.03 50.14 56.96 C 53.75 57.02 57.03 53.77 56.95 50.16 C 57.04 36.73 57.02 23.30 56.96 9.88 C 57.04 6.24 53.75 2.96 50.11 3.04 C 37.41 2.93 24.71 3.06 12.02 2.98 C 10.47 3.04 8.85 2.91 7.38 3.51 Z" />
            <path fill="#ff8207" opacity="1.00" d=" M 17.02 22.21 C 21.32 18.03 25.26 13.43 29.99 9.73 C 34.74 13.40 38.66 18.02 42.96 22.19 C 44.71 23.32 43.21 25.16 42.05 26.03 C 38.24 23.19 35.19 19.53 31.79 16.24 C 31.83 26.82 31.89 37.41 31.78 47.98 C 32.02 50.46 27.97 50.45 28.22 47.97 C 28.11 37.40 28.17 26.82 28.21 16.25 C 24.82 19.53 21.75 23.16 17.97 26.02 C 16.81 25.17 15.28 23.34 17.02 22.21 Z" />
        </g>
    </symbol>

    <symbol  id='lineHead' viewBox="0 0 826 16">
        <g>
            <path  d=" M 412.85 0.00 L 412.99 0.00 C 415.69 2.63 418.33 5.33 420.99 8.00 C 418.41 10.69 415.63 13.18 413.19 16.00 L 413.01 16.00 C 410.31 13.37 407.67 10.67 405.00 8.00 C 407.61 5.32 410.35 2.78 412.85 0.00 Z" /> -->
            <path  d=" M 0.00 7.00 C 133.33 7.01 266.67 6.99 400.00 7.01 C 400.00 7.50 400.00 8.49 400.00 8.99 C 266.67 9.01 133.33 8.99 0.00 9.00 L 0.00 7.00 Z" />
            <path  d=" M 426.00 7.01 C 559.33 6.99 692.67 7.01 826.00 7.00 L 826.00 9.00 C 692.67 8.99 559.33 9.01 426.00 8.99 C 426.00 8.50 426.00 7.51 426.00 7.01 Z" /> 
        </g>
    </symbol>

    <symbol  id='line' viewBox="0 0 31 6">
        <g>
            <path  d=" M 0.00 0.00 L 1.33 0.00 C 2.70 1.38 4.01 2.81 5.34 4.23 C 6.80 2.85 8.24 1.44 9.65 0.00 L 11.19 0.00 C 12.63 1.40 14.05 2.86 15.76 3.94 C 17.19 2.75 18.42 1.36 19.69 0.00 L 21.36 0.00 C 22.71 1.37 24.00 2.80 25.31 4.21 C 26.79 2.81 28.23 1.38 29.72 0.00 L 31.00 0.00 L 31.00 1.35 C 29.54 2.96 28.02 4.51 26.45 6.00 L 24.71 6.00 C 23.27 4.55 21.79 3.13 20.29 1.74 C 19.00 3.15 17.72 4.57 16.47 6.00 L 14.72 6.00 C 13.21 4.61 11.75 3.17 10.27 1.75 C 8.99 3.16 7.72 4.57 6.46 6.00 L 4.60 6.00 C 3.01 4.52 1.48 2.99 0.00 1.39 L 0.00 0.00 Z" />
        </g>
    </symbol>

    <symbol  id='addPhoto' viewBox="0 0 49 60">
        <g>
            <path d=" M 8.73 0.00 L 39.43 0.00 C 44.20 0.24 48.24 3.99 49.00 8.67 L 49.00 51.09 C 48.43 55.62 44.77 59.24 40.31 60.00 L 8.93 60.00 C 4.38 59.41 0.68 55.74 0.00 51.21 L 0.00 8.90 C 0.58 4.36 4.27 0.76 8.73 0.00 M 23.19 22.15 C 23.17 24.48 23.17 26.82 23.15 29.16 C 20.89 29.16 18.64 29.17 16.38 29.18 C 16.37 29.63 16.36 30.53 16.35 30.98 C 18.62 31.01 20.89 31.00 23.16 31.01 C 23.17 33.47 23.16 35.93 23.18 38.38 C 23.73 38.38 24.83 38.38 25.37 38.37 C 25.39 35.92 25.38 33.46 25.38 31.01 C 27.59 31.01 29.80 31.00 32.00 31.00 C 32.00 30.54 32.00 29.63 32.00 29.17 C 29.80 29.16 27.59 29.17 25.39 29.17 C 25.38 26.84 25.39 24.51 25.37 22.18 C 24.83 22.17 23.74 22.15 23.19 22.15 Z" />
            <path fill="#fffdfb" d=" M 23.19 22.15 C 23.74 22.15 24.83 22.17 25.37 22.18 C 25.39 24.51 25.38 26.84 25.39 29.17 C 27.59 29.17 29.80 29.16 32.00 29.17 C 32.00 29.63 32.00 30.54 32.00 31.00 C 29.80 31.00 27.59 31.01 25.38 31.01 C 25.38 33.46 25.39 35.92 25.37 38.37 C 24.83 38.38 23.73 38.38 23.18 38.38 C 23.16 35.93 23.17 33.47 23.16 31.01 C 20.89 31.00 18.62 31.01 16.35 30.98 C 16.36 30.53 16.37 29.63 16.38 29.18 C 18.64 29.17 20.89 29.16 23.15 29.16 C 23.17 26.82 23.17 24.48 23.19 22.15 Z" />
        </g>
    </symbol>


<!-- ////////////////////////////////FOR advantages -->
    <symbol  id='adv1' viewBox="0 0 50 40">
        <g>
            <path  d=" M 0.18 0.00 L 49.91 0.00 L 49.99 0.01 L 50.00 0.17 L 50.00 30.07 C 49.16 31.53 47.75 32.51 46.01 32.31 C 39.53 32.43 33.04 32.28 26.56 32.34 C 26.58 33.87 26.59 35.41 26.60 36.94 C 29.64 37.33 33.47 35.87 35.98 38.00 C 35.83 38.50 35.52 39.50 35.36 40.00 L 14.58 40.00 C 13.79 38.70 13.95 36.91 15.85 37.03 C 18.36 36.78 20.88 36.94 23.40 36.94 C 23.40 35.41 23.42 33.88 23.46 32.35 C 16.95 32.26 10.44 32.44 3.94 32.30 C 2.28 32.53 1.04 31.47 0.00 30.32 L 0.00 0.09 L 0.01 0.01 L 0.18 0.00 M 3.12 3.07 C 3.12 11.78 3.12 20.49 3.12 29.20 C 17.71 29.20 32.29 29.20 46.88 29.20 C 46.88 20.49 46.88 11.78 46.88 3.07 C 32.29 3.07 17.71 3.07 3.12 3.07 Z" />
        </g>
    </symbol>

    <symbol  id='adv2' viewBox="0 0 40 40">
        <g>
            <path  d=" M 21.55 0.00 L 23.14 0.00 C 25.11 1.34 26.93 2.92 29.10 3.93 C 31.79 3.81 34.29 2.61 36.95 2.24 C 37.15 2.44 37.55 2.85 37.75 3.06 C 37.35 5.73 36.53 8.32 35.89 10.94 C 37.25 12.92 38.63 14.88 40.00 16.85 L 40.00 18.48 C 37.12 18.73 34.24 18.96 31.36 19.25 C 29.94 21.24 28.52 23.27 26.78 25.01 C 23.97 24.83 24.18 20.85 22.91 18.90 C 15.69 25.79 8.87 33.08 1.67 40.00 L 0.00 40.00 L 0.00 38.29 C 6.86 31.13 14.03 24.28 20.93 17.16 C 18.87 16.29 16.80 15.45 14.72 14.60 C 16.04 11.99 18.60 10.41 20.85 8.70 C 21.13 5.80 21.35 2.90 21.55 0.00 M 23.89 3.85 C 23.72 5.77 23.60 7.70 23.50 9.63 C 21.97 10.95 20.45 12.28 18.96 13.64 C 20.78 14.29 22.61 14.95 24.43 15.61 C 25.13 17.41 25.82 19.23 26.50 21.05 C 27.88 19.60 29.22 18.12 30.52 16.60 C 32.42 16.48 34.32 16.35 36.21 16.17 C 35.29 14.41 33.81 12.86 33.35 10.90 C 33.56 9.09 34.09 7.34 34.46 5.56 C 32.67 5.96 30.90 6.51 29.08 6.75 C 27.19 6.11 25.61 4.83 23.89 3.85 Z" />
        </g>
    </symbol>

    <symbol  id='adv3' viewBox="0 0 40 40">
        <g>
            <path d=" M 34.64 0.00 L 40.00 0.00 L 40.00 5.98 C 39.56 11.18 38.72 16.99 34.58 20.64 C 30.98 23.63 26.58 25.39 22.55 27.70 C 22.56 30.03 22.53 32.35 22.55 34.68 C 20.73 36.46 19.02 38.35 17.08 40.00 L 15.79 40.00 C 14.90 34.67 12.59 29.28 7.74 26.45 C 5.22 25.59 2.59 25.09 0.00 24.46 L 0.00 23.16 C 1.61 21.08 3.52 19.27 5.27 17.31 C 7.77 17.31 10.26 17.32 12.76 17.31 C 15.12 12.97 16.83 8.04 20.62 4.68 C 24.49 1.35 29.75 0.59 34.64 0.00 M 23.00 6.00 C 18.56 9.32 17.35 15.07 14.30 19.44 C 11.79 20.26 9.01 19.69 6.40 19.83 C 5.48 20.81 4.56 21.78 3.62 22.74 C 5.60 23.26 7.66 23.53 9.56 24.32 C 13.08 27.65 17.06 31.23 17.46 36.40 C 18.29 35.47 19.14 34.54 20.01 33.63 C 20.00 31.19 19.83 28.71 20.29 26.29 C 24.73 22.92 30.68 21.65 34.30 17.22 C 37.34 12.94 37.27 7.42 37.57 2.41 C 32.59 2.76 27.24 3.09 23.00 6.00 Z" />
            <path d=" M 26.47 7.51 C 30.05 6.57 33.63 10.48 32.29 13.97 C 31.32 17.40 26.43 18.61 24.01 15.97 C 21.11 13.43 22.71 8.14 26.47 7.51 M 26.29 10.24 C 23.11 11.90 26.64 16.72 29.12 14.24 C 31.52 12.55 28.73 8.70 26.29 10.24 Z" />
            <path d=" M 0.00 37.02 C -0.28 32.92 2.45 29.95 5.97 28.38 C 6.34 28.87 7.09 29.85 7.46 30.34 C 4.49 31.74 2.24 34.16 2.36 37.63 C 5.77 37.50 8.20 35.44 9.55 32.42 C 10.02 32.85 10.97 33.72 11.45 34.15 C 10.32 35.76 9.48 37.75 7.74 38.82 C 5.29 39.81 2.59 39.72 0.00 39.98 L 0.00 37.02 Z" />
        </g>
    </symbol>

    <symbol  id='adv4' viewBox="0 0 33 40">
        <g>
            <path d=" M 21.42 0.00 L 23.33 0.00 C 28.61 2.94 32.25 8.35 33.00 14.35 L 33.00 17.59 C 32.56 22.76 30.27 27.90 26.06 31.06 C 23.34 33.33 19.85 34.24 16.49 35.06 C 16.48 35.65 16.47 36.81 16.47 37.39 C 18.51 37.79 22.18 36.72 21.60 40.00 L 9.60 40.00 C 9.36 39.44 8.89 38.32 8.65 37.76 C 10.40 37.71 12.16 37.62 13.91 37.41 C 13.94 36.87 13.99 35.78 14.02 35.24 C 11.55 34.45 5.10 35.20 6.44 31.12 C 12.01 33.02 18.57 33.22 23.57 29.72 C 30.74 25.06 32.61 14.32 27.74 7.36 C 26.08 4.49 22.36 3.35 21.42 0.00 Z" />
            <path d=" M 7.87 3.85 C 14.78 0.30 24.16 3.89 26.86 11.18 C 30.13 18.56 25.26 27.91 17.40 29.59 C 9.47 31.91 0.69 25.79 0.00 17.58 L 0.00 15.30 C 0.45 10.45 3.42 5.91 7.87 3.85 M 10.46 5.52 C 4.95 7.18 1.30 13.43 2.88 19.03 C 4.25 25.02 11.08 28.91 16.94 27.12 C 22.54 25.75 26.43 19.65 25.07 14.00 C 23.92 7.61 16.59 3.36 10.46 5.52 Z" />
        </g>
    </symbol>

    <symbol  id='adv5' viewBox="0 0 40 41">
        <g>
            <path d=" M 17.56 0.00 L 22.30 0.00 C 23.67 1.61 24.20 3.68 24.76 5.66 C 25.27 5.89 26.28 6.34 26.79 6.56 C 28.99 5.30 32.15 2.89 34.20 5.76 C 37.17 7.79 34.69 11.04 33.50 13.31 C 33.71 13.82 34.14 14.84 34.36 15.36 C 36.32 15.93 38.33 16.50 40.00 17.73 L 40.00 22.61 C 38.23 23.48 36.38 24.18 34.49 24.77 C 34.23 25.26 33.71 26.24 33.45 26.73 C 34.59 28.98 37.21 32.19 34.28 34.23 C 32.24 37.19 29.00 34.81 26.77 33.49 C 26.25 33.74 25.22 34.24 24.70 34.49 C 24.10 36.97 23.51 40.85 19.98 40.14 C 16.50 40.83 16.14 36.74 15.34 34.42 C 14.78 34.18 13.67 33.70 13.11 33.46 C 11.51 34.30 9.99 35.43 8.18 35.81 C 6.35 35.33 4.60 33.78 4.11 31.93 C 4.73 29.57 6.07 27.42 6.31 24.95 C 4.15 24.34 1.99 23.70 0.00 22.63 L 0.00 17.76 C 1.66 16.48 3.69 15.91 5.68 15.34 C 5.87 14.86 6.24 13.90 6.43 13.43 C 5.15 11.11 2.61 7.73 5.73 5.66 C 7.85 2.89 10.92 5.40 13.11 6.62 C 13.66 6.37 14.75 5.88 15.30 5.63 C 15.94 3.71 16.65 1.81 17.56 0.00 M 17.56 7.60 C 15.97 8.24 14.40 8.92 12.82 9.60 C 11.26 8.62 9.70 7.64 8.14 6.66 C 5.49 8.71 8.41 11.14 9.38 13.19 C 8.78 14.69 8.18 16.18 7.59 17.68 C 5.92 18.05 4.22 18.37 2.60 18.93 C 1.41 22.23 5.62 21.76 7.63 22.59 C 8.20 24.01 8.79 25.43 9.39 26.85 C 8.51 28.92 5.29 31.48 8.20 33.35 C 9.75 32.40 11.29 31.44 12.84 30.48 C 14.42 31.16 16.01 31.83 17.61 32.46 C 18.00 34.11 18.37 35.76 18.77 37.41 C 19.62 37.44 20.48 37.48 21.34 37.53 C 21.72 35.84 22.08 34.14 22.45 32.44 C 23.99 31.82 25.53 31.18 27.07 30.54 C 29.02 31.51 31.36 34.41 33.31 31.81 C 32.42 30.18 31.43 28.61 30.53 26.99 C 31.16 25.51 31.78 24.03 32.38 22.54 C 34.13 22.12 35.88 21.70 37.62 21.27 C 38.20 18.07 34.54 18.25 32.41 17.66 C 31.81 16.12 31.18 14.59 30.54 13.07 C 31.45 11.45 32.42 9.87 33.33 8.25 C 31.33 5.74 29.01 8.54 27.07 9.54 C 25.53 8.88 23.99 8.23 22.44 7.59 C 22.07 5.91 21.75 4.20 21.19 2.56 C 17.90 1.50 18.39 5.61 17.56 7.60 Z" />
            <path d=" M 16.31 13.47 C 21.02 10.54 27.79 14.46 27.56 20.01 C 27.82 25.54 21.11 29.50 16.38 26.64 C 11.29 24.15 11.25 16.01 16.31 13.47 M 17.50 15.73 C 14.51 17.34 14.18 21.96 16.94 23.95 C 19.62 26.29 24.21 24.56 24.87 21.12 C 25.99 17.13 20.99 13.38 17.50 15.73 Z" />
        </g>
    </symbol>

    <symbol  id='adv6' viewBox="0 0 40 41">
        <g>
            <path d=" M 19.85 0.00 L 20.54 0.00 C 27.03 3.31 33.57 6.54 40.00 9.99 L 40.00 11.32 C 33.42 15.12 26.68 18.66 19.96 22.22 C 13.31 18.51 6.48 15.11 0.00 11.11 L 0.00 10.85 C 0.67 9.44 2.23 8.94 3.48 8.23 C 8.96 5.53 14.38 2.72 19.85 0.00 M 4.21 10.70 C 9.45 13.65 14.74 16.49 20.01 19.37 C 25.34 16.48 30.72 13.67 36.00 10.67 C 30.70 8.05 25.47 5.30 20.19 2.66 C 14.86 5.33 9.55 8.04 4.21 10.70 Z" />
            <path d=" M 0.00 19.28 C 1.50 18.32 3.10 17.54 4.71 16.78 C 5.32 17.15 6.55 17.87 7.16 18.23 C 6.11 18.81 5.06 19.39 4.01 19.97 C 9.28 22.83 14.53 25.73 19.80 28.59 C 25.13 25.71 30.46 22.84 35.78 19.95 C 34.78 19.40 33.78 18.85 32.78 18.31 C 33.42 17.95 34.68 17.23 35.31 16.87 C 36.96 17.62 38.58 18.46 40.00 19.60 L 40.00 20.38 C 33.40 24.27 26.58 27.74 19.86 31.42 C 13.17 27.93 6.56 24.29 0.00 20.56 L 0.00 19.28 Z" />
            <path d=" M 35.48 25.82 C 37.06 26.50 38.62 27.28 40.00 28.32 L 40.00 28.42 C 39.41 30.05 37.63 30.49 36.33 31.33 C 30.83 34.25 25.37 37.25 19.88 40.20 C 13.18 36.70 6.54 33.09 0.00 29.30 L 0.00 27.95 C 1.41 27.26 2.82 26.56 4.22 25.85 C 4.93 26.21 6.36 26.93 7.07 27.28 C 6.30 27.64 4.76 28.35 3.99 28.70 C 9.24 31.64 14.53 34.50 19.82 37.37 C 25.15 34.48 30.48 31.60 35.80 28.71 C 35.08 28.36 33.65 27.66 32.93 27.31 C 33.78 26.81 34.63 26.32 35.48 25.82 Z" />
        </g>
    </symbol>

    <symbol  id='adv7' viewBox="0 0 40 41">
        <g>
            <path d=" M 26.79 0.00 L 32.03 0.00 C 31.29 3.54 28.16 5.75 26.04 8.46 C 27.92 10.39 29.80 12.33 31.66 14.28 C 34.32 12.09 36.56 9.14 40.00 8.14 L 40.00 12.66 C 39.66 16.57 38.83 21.01 35.25 23.28 C 32.22 25.70 28.17 25.16 24.74 24.03 C 20.25 28.43 15.88 32.96 11.45 37.42 C 10.02 38.85 8.26 40.48 6.05 40.03 C 3.20 39.52 1.45 36.86 0.00 34.60 L 0.00 32.08 C 4.25 25.61 10.62 20.86 15.68 15.04 C 14.80 11.40 14.65 7.21 17.17 4.16 C 19.39 1.13 23.35 0.56 26.79 0.00 M 18.86 5.93 C 16.80 8.84 17.46 12.60 18.71 15.68 C 13.73 20.71 8.77 25.77 3.84 30.83 C -0.12 33.55 6.47 40.22 9.14 36.11 C 14.22 31.02 19.27 25.90 24.32 20.77 C 27.09 22.45 30.74 23.37 33.63 21.44 C 36.83 19.57 37.14 15.58 37.58 12.29 C 35.70 13.92 33.95 15.69 31.95 17.16 C 28.33 15.22 25.78 11.43 22.93 8.43 C 24.64 6.41 26.39 4.42 28.05 2.35 C 24.86 2.92 20.87 2.91 18.86 5.93 Z" />
        </g>
    </symbol>

    <symbol  id='adv8' viewBox="0 0 40 41">
        <g>
            <path d=" M 33.34 0.00 L 35.14 0.00 C 37.46 0.67 39.17 2.49 40.00 4.71 L 40.00 6.38 C 39.45 7.89 38.54 9.24 37.38 10.35 C 32.86 14.85 28.29 19.30 23.80 23.82 C 20.51 27.94 14.95 28.84 10.08 29.83 C 10.80 26.20 11.76 22.58 13.16 19.15 C 17.03 14.73 21.45 10.81 25.52 6.56 C 28.01 4.25 30.06 1.26 33.34 0.00 M 32.38 3.33 C 27.07 8.37 22.04 13.71 16.79 18.81 C 14.44 20.68 14.40 23.94 13.41 26.56 C 15.77 25.60 18.68 25.48 20.53 23.55 C 25.81 18.19 31.27 12.99 36.53 7.60 C 39.48 5.28 34.79 0.65 32.38 3.33 Z" />
            <path d=" M -0.00 5.61 C 0.62 4.38 1.60 3.78 2.95 3.83 C 9.49 3.73 16.04 3.83 22.58 3.81 C 21.73 4.63 20.87 5.45 20.02 6.27 C 14.17 6.26 8.32 6.26 2.47 6.27 C 2.48 16.69 2.47 27.11 2.48 37.53 C 12.01 37.60 21.55 37.39 31.08 37.64 C 31.28 32.28 31.10 26.91 31.21 21.55 C 32.04 20.79 32.88 20.02 33.71 19.26 C 33.66 25.15 33.78 31.04 33.69 36.94 C 33.89 38.46 32.79 40.22 31.09 40.01 C 22.04 40.16 12.99 40.01 3.94 40.08 C 2.38 40.22 0.87 39.79 0.00 38.39 L 0.00 5.61 Z" />
        </g>
    </symbol>

</svg>
