<?xml version="1.0" encoding="UTF-8" ?>
<!DOCTYPE svg PUBLIC "-//W3C//DTD SVG 1.1//EN" "http://www.w3.org/Graphics/SVG/1.1/DTD/svg11.dtd">
<svg width="54pt" height="54pt" viewBox="0 0 54 54" version="1.1" xmlns="http://www.w3.org/2000/svg">
<g id="#18202499">
<path fill="#182024" opacity="0.60" d=" M 24.71 0.00 L 29.49 0.00 C 42.24 1.20 52.97 12.06 54.00 24.83 L 54.00 29.01 C 53.09 41.81 42.38 52.67 29.66 54.00 L 24.91 54.00 C 12.00 53.04 1.03 42.08 0.00 29.20 L 0.00 24.96 C 0.93 12.08 11.84 1.08 24.71 0.00 M 18.90 24.58 C 21.58 27.28 24.27 29.99 27.00 32.65 C 29.73 29.99 32.43 27.29 35.09 24.56 C 34.55 24.03 33.47 22.98 32.93 22.45 C 30.93 24.39 29.00 26.39 27.00 28.31 C 24.99 26.39 23.06 24.39 21.07 22.45 C 20.35 23.16 19.62 23.87 18.90 24.58 Z" />
</g>
<g id="#f5f5f5fb">
<path fill="#f5f5f5" opacity="1.00" d=" M 18.90 24.58 C 19.62 23.87 20.35 23.16 21.07 22.45 C 23.06 24.39 24.99 26.39 27.00 28.31 C 29.00 26.39 30.93 24.39 32.93 22.45 C 33.47 22.98 34.55 24.03 35.09 24.56 C 32.43 27.29 29.73 29.99 27.00 32.65 C 24.27 29.99 21.58 27.28 18.90 24.58 Z" />
</g>
</svg>
