<?xml version="1.0" encoding="UTF-8" ?>
<!DOCTYPE svg PUBLIC "-//W3C//DTD SVG 1.1//EN" "http://www.w3.org/Graphics/SVG/1.1/DTD/svg11.dtd">
<svg width="46pt" height="80pt" viewBox="0 0 46 80" version="1.1" xmlns="http://www.w3.org/2000/svg">
<g id="#ffffffff">
</g>
<g id="#ff9526ff">
<path fill="#ff9526" opacity="1.00" d=" M 5.19 0.00 L 6.82 0.00 C 8.54 0.93 10.14 2.08 11.50 3.49 C 22.22 14.45 33.20 25.15 43.94 36.06 C 46.27 38.10 46.32 41.94 43.99 44.00 C 34.90 53.24 25.66 62.33 16.52 71.52 C 13.46 74.40 10.87 77.83 7.20 80.00 L 4.08 80.00 C 2.60 78.93 0.88 77.81 0.47 75.88 C -0.39 73.29 1.85 71.15 3.45 69.43 C 13.33 59.69 23.05 49.79 32.93 40.06 C 22.56 29.73 12.14 19.45 1.90 8.99 C -1.49 5.96 1.10 0.61 5.19 0.00 Z" />
</g>
</svg>
