<?xml version="1.0" encoding="UTF-8" ?>
<!DOCTYPE svg PUBLIC "-//W3C//DTD SVG 1.1//EN" "http://www.w3.org/Graphics/SVG/1.1/DTD/svg11.dtd">
<svg width="26pt" height="22pt" viewBox="0 0 26 22" version="1.1" xmlns="http://www.w3.org/2000/svg">
<g id="#ffffffff">
<path fill="#ffffff" opacity="1.00" d=" M 12.40 7.42 C 12.00 3.29 16.59 -1.44 20.50 1.66 C 22.05 3.95 28.70 -1.54 23.05 3.77 L 25.62 3.54 C 24.96 4.17 23.63 5.44 22.96 6.07 C 23.17 12.54 18.85 18.93 12.52 20.63 C 8.46 22.35 4.08 20.85 0.40 18.93 C 3.09 18.89 5.75 18.42 8.11 17.07 C 6.21 16.32 4.38 15.35 3.08 13.73 C 3.67 13.58 4.84 13.28 5.42 13.14 C 3.30 12.30 1.89 10.55 1.05 8.48 C 1.73 8.47 3.10 8.47 3.78 8.46 C 1.52 6.95 1.21 4.21 1.80 1.73 C 4.74 4.61 8.35 6.63 12.40 7.42 Z" />
</g>
</svg>
