<?xml version="1.0" encoding="UTF-8" ?>
<!DOCTYPE svg PUBLIC "-//W3C//DTD SVG 1.1//EN" "http://www.w3.org/Graphics/SVG/1.1/DTD/svg11.dtd">
<svg width="118pt" height="103pt" viewBox="0 0 118 103" version="1.1" xmlns="http://www.w3.org/2000/svg">
<g id="#007cc3ff">
<path fill="#007cc3" opacity="1.00" d=" M 32.30 37.67 C 41.17 25.20 50.01 12.72 58.81 0.20 C 65.38 9.73 72.06 19.19 78.89 28.53 C 62.81 27.03 47.21 32.35 32.30 37.67 Z" />
<path fill="#007cc3" opacity="1.00" d=" M 47.46 45.32 C 55.23 41.39 62.96 36.91 71.57 35.13 C 70.66 36.01 69.74 36.88 68.65 37.52 C 60.75 42.09 52.08 45.52 45.04 51.44 C 57.68 54.78 71.00 48.80 83.63 52.63 C 85.34 53.10 86.48 54.53 87.64 55.76 C 84.40 60.92 78.71 63.59 73.48 66.29 C 60.44 72.67 46.76 77.58 33.10 82.45 C 30.18 83.61 27.00 83.29 23.93 83.32 C 15.96 83.26 7.98 83.34 0.01 83.27 C 12.27 66.81 29.73 55.17 47.46 45.32 Z" />
<path fill="#007cc3" opacity="1.00" d=" M 54.45 49.50 C 63.99 44.49 74.22 40.82 83.45 35.21 C 86.30 39.16 89.09 43.16 91.94 47.11 C 79.43 45.20 66.91 48.56 54.45 49.50 Z" />
<path fill="#007cc3" opacity="1.00" d=" M 90.74 66.78 C 94.51 64.95 97.79 62.24 100.26 58.86 C 106.00 67.06 111.73 75.26 117.63 83.34 C 93.95 83.21 70.27 83.40 46.59 83.25 C 61.53 78.42 76.60 73.71 90.74 66.78 Z" />
<path fill="#007cc3" opacity="1.00" d=" M 37.53 92.50 C 42.95 88.94 49.90 90.93 56.00 90.43 C 62.39 90.98 69.71 88.81 75.37 92.66 C 75.84 95.41 76.13 98.45 75.12 101.11 C 73.37 102.26 71.23 102.55 69.22 103.00 L 44.12 103.00 C 41.81 102.56 39.12 102.54 37.33 100.79 C 36.80 98.11 36.39 95.05 37.53 92.50 M 47.59 93.44 C 47.60 95.57 47.61 97.71 47.62 99.85 C 53.48 99.80 59.34 99.85 65.20 99.81 C 65.11 97.71 65.14 95.61 64.93 93.52 C 59.15 93.29 53.37 93.51 47.59 93.44 Z" />
<path fill="#007cc3" opacity="1.00" d=" M 78.82 90.42 C 89.21 90.46 99.59 90.37 109.98 90.44 C 112.91 90.36 115.75 91.36 118.00 93.24 L 118.00 93.89 C 115.83 95.28 113.42 96.18 110.98 96.93 C 113.24 97.34 115.47 97.89 117.67 98.55 C 117.74 99.64 117.87 101.83 117.94 102.92 C 116.47 102.96 115.01 102.98 113.54 103.00 L 78.85 103.00 C 78.84 98.81 78.84 94.61 78.82 90.42 M 89.48 93.44 C 89.50 95.57 89.51 97.71 89.52 99.84 C 94.38 99.87 99.24 99.96 104.11 99.91 C 105.57 100.18 106.73 99.57 107.44 98.31 C 102.57 97.88 97.69 98.14 92.81 98.01 C 92.82 97.32 92.83 95.95 92.83 95.26 C 97.76 95.21 102.70 95.39 107.62 95.08 C 107.21 94.70 106.37 93.94 105.95 93.56 C 100.47 93.17 94.97 93.52 89.48 93.44 Z" />
<path fill="#007cc3" opacity="1.00" d=" M 0.31 90.43 C 8.55 90.44 16.80 90.41 25.05 90.41 C 28.49 90.44 32.66 90.69 34.60 94.03 C 33.45 95.73 31.36 96.16 29.60 96.94 C 31.38 97.57 33.13 98.30 34.87 99.04 C 33.29 101.58 30.64 102.86 27.70 103.00 L 0.46 103.00 C 0.43 102.20 0.36 100.61 0.33 99.81 C 7.93 99.82 15.52 99.97 23.12 99.89 C 23.12 99.44 23.12 98.54 23.12 98.09 C 18.53 98.05 13.93 98.08 9.33 98.02 C 9.32 97.34 9.30 95.99 9.29 95.32 C 13.92 95.31 18.56 95.32 23.19 95.30 C 23.16 94.84 23.09 93.90 23.06 93.43 C 15.49 93.42 7.92 93.42 0.35 93.46 C 0.34 92.70 0.32 91.18 0.31 90.43 Z" />
</g>
</svg>
